<?xml version="1.0" encoding="UTF-8"?>
<svg version="1.1" xmlns="http://www.w3.org/2000/svg" width="1920" height="1920">
<path d="M0 0 C1.09633066 -0.00066278 1.09633066 -0.00066278 2.21480942 -0.00133896 C90.02114376 -0.02903137 177.35733006 11.91791851 323.125 55.25 C323.77730591 55.47560608 324.42961182 55.70121216 325.10168457 55.93365479 C357.92019854 67.31164805 389.88650055 81.08637242 421.125 96.25 C422.10886688 96.72726532 422.10886688 96.72726532 423.11260986 97.21417236 C440.21679236 105.52505276 457.04737884 114.16868231 473.49414062 123.72949219 C476.10493376 125.2384027 478.72903137 126.72078553 481.359375 128.1953125 C526.81143578 153.73094398 569.96740489 184.02699745 610.125 217.25 C611.40310547 218.28447266 611.40310547 218.28447266 612.70703125 219.33984375 C623.96431402 228.45445191 634.84462104 237.98647924 645.4765625 247.8203125 C647.76593397 249.92059135 650.08461618 251.97165188 652.4375 254 C655.53009224 256.67812111 658.40770167 259.50868793 661.27099609 262.4284668 C662.96752776 264.0952857 664.70983861 265.6279761 666.52734375 267.16015625 C672.08805937 271.99684034 677.25334857 277.22883357 682.45239258 282.44702148 C684.183947 284.183936 685.92078359 285.91543889 687.65820312 287.64648438 C692.84465043 292.83014561 697.97659127 298.00637132 702.70678711 303.61743164 C704.26895254 305.41571021 705.924625 307.0825291 707.625 308.75 C710.66094925 311.73872337 713.47008659 314.86706479 716.25 318.09375 C718.29859094 320.44962958 720.39703002 322.7550746 722.5 325.0625 C726.37850727 329.35959827 730.05365968 333.78758754 733.69140625 338.2890625 C735.87653195 340.94769056 738.1089975 343.5504839 740.36938477 346.14453125 C746.470654 353.15698404 752.16978404 360.41114213 757.76953125 367.828125 C760.60596767 371.58338356 763.49995968 375.28979584 766.41015625 378.98803711 C773.04007916 387.42570686 779.35056005 396.0314155 785.45898438 404.85253906 C787.32095003 407.53197967 789.19896046 410.1997828 791.078125 412.8671875 C798.2945253 423.13449272 805.33362923 433.44515259 811.8515625 444.16992188 C813.24880598 446.4522291 814.66941386 448.71888117 816.09375 450.984375 C863.7468854 526.94347283 900.67622141 609.51213464 930.125 713.25 C930.3168689 713.96184448 930.50873779 714.67368896 930.7064209 715.40710449 C953.27862757 799.42454902 963.09180189 886.14091878 907.125 1281.25 C906.89939392 1281.90230591 906.67378784 1282.55461182 906.44134521 1283.22668457 C895.06335195 1316.04519854 881.28862758 1348.01150055 866.125 1379.25 C865.80682312 1379.90591125 865.48864624 1380.56182251 865.16082764 1381.23760986 C856.84994724 1398.34179236 848.20631769 1415.17237884 838.64550781 1431.61914062 C837.1365973 1434.22993376 835.65421447 1436.85403137 834.1796875 1439.484375 C808.64405602 1484.93643578 778.34800255 1528.09240489 745.125 1568.25 C744.43535156 1569.10207031 743.74570313 1569.95414063 743.03515625 1570.83203125 C733.92054809 1582.08931402 724.38852076 1592.96962104 714.5546875 1603.6015625 C712.45440865 1605.89093397 710.40334812 1608.20961618 708.375 1610.5625 C705.69687889 1613.65509224 702.86631207 1616.53270167 699.9465332 1619.39599609 C698.2797143 1621.09252776 696.7470239 1622.83483861 695.21484375 1624.65234375 C690.37815966 1630.21305937 685.14616643 1635.37834857 679.92797852 1640.57739258 C678.191064 1642.308947 676.45956111 1644.04578359 674.72851562 1645.78320312 C669.54485439 1650.96965043 664.36862868 1656.10159127 658.75756836 1660.83178711 C656.95928979 1662.39395254 655.2924709 1664.049625 653.625 1665.75 C650.63627663 1668.78594925 647.50793521 1671.59508659 644.28125 1674.375 C641.92537042 1676.42359094 639.6199254 1678.52203002 637.3125 1680.625 C633.01540173 1684.50350727 628.58741246 1688.17865968 624.0859375 1691.81640625 C621.42730944 1694.00153195 618.8245161 1696.2339975 616.23046875 1698.49438477 C609.21801596 1704.595654 601.96385787 1710.29478404 594.546875 1715.89453125 C590.79161644 1718.73096767 587.08520416 1721.62495968 583.38696289 1724.53515625 C574.94929314 1731.16507916 566.3435845 1737.47556005 557.52246094 1743.58398438 C554.84302033 1745.44595003 552.1752172 1747.32396046 549.5078125 1749.203125 C539.24050728 1756.4195253 528.92984741 1763.45862923 518.20507812 1769.9765625 C515.9227709 1771.37380598 513.65611883 1772.79441386 511.390625 1774.21875 C435.43152717 1821.8718854 352.86286536 1858.80122141 249.125 1888.25 C248.41315552 1888.4418689 247.70131104 1888.63373779 246.96789551 1888.8314209 C163.10113363 1911.36314503 76.73262724 1921.0211003 -68.875 1918.25 C-70.50943312 1918.11970405 -72.14387351 1917.98949926 -73.77832031 1917.859375 C-156.76163035 1911.14941689 -238.31927662 1893.78492377 -316.875 1866.25 C-317.87246246 1865.90065399 -317.87246246 1865.90065399 -318.89007568 1865.54425049 C-411.98817404 1832.85486864 -500.25373231 1785.31114323 -578.43554688 1725.11474609 C-581.39272712 1722.85424342 -584.37954705 1720.63598565 -587.37133789 1718.42163086 C-594.0762696 1713.45522658 -600.5308965 1708.28590252 -606.8515625 1702.83984375 C-609.71784949 1700.38461342 -612.62725284 1697.99704147 -615.5625 1695.625 C-620.01403808 1692.00165505 -624.29882455 1688.23036128 -628.54296875 1684.3671875 C-630.63323889 1682.46948831 -632.74486115 1680.60266585 -634.875 1678.75 C-650.31011438 1665.27879679 -665.11133145 1651.18426137 -679.57568359 1636.6796875 C-681.89696315 1634.35298555 -684.22362663 1632.03176172 -686.55078125 1629.7109375 C-688.05500867 1628.20605012 -689.55892631 1626.70085303 -691.0625 1625.1953125 C-691.74489746 1624.51493927 -692.42729492 1623.83456604 -693.13037109 1623.13357544 C-697.01193359 1619.23324086 -700.71841053 1615.23208876 -704.30484009 1611.05827332 C-706.86861811 1608.10570056 -709.56711467 1605.28139131 -712.25 1602.4375 C-716.97247432 1597.39568357 -721.4415215 1592.22635433 -725.76171875 1586.83203125 C-727.91119026 1584.20578232 -730.14960088 1581.69366547 -732.4375 1579.1875 C-736.8117307 1574.37509075 -740.86577664 1569.36800125 -744.875 1564.25 C-745.66132812 1563.25871094 -746.44765625 1562.26742188 -747.2578125 1561.24609375 C-759.37280025 1545.95522047 -771.22221723 1530.47378346 -782.34472656 1514.44384766 C-783.98493484 1512.09239399 -785.64324342 1509.75446136 -787.3046875 1507.41796875 C-794.6637118 1497.04314977 -801.67045445 1486.51300764 -808.35986328 1475.69482422 C-809.92669632 1473.16658283 -811.50714724 1470.64724311 -813.08984375 1468.12890625 C-858.20542542 1396.12680391 -893.41818462 1318.01145968 -925.875 1208.25 C-926.0668689 1207.53815552 -926.25873779 1206.82631104 -926.4564209 1206.09289551 C-943.09483587 1144.16199407 -953.23745541 1080.27338605 -956.875 1016.25 C-956.91736786 1015.53893097 -956.95973572 1014.82786194 -957.00338745 1014.09524536 C-958.02896901 996.46662006 -958.07656243 978.8390355 -958.0625 961.1875 C-958.06209969 960.06011288 -958.06209969 960.06011288 -958.06169128 958.90995026 C-958.05166535 936.38983858 -957.9186572 913.92511545 -956.05859375 891.46807861 C-955.86226326 889.0961217 -955.6733502 886.7236278 -955.484375 884.35107422 C-948.773913 801.36598368 -931.41056879 719.80756358 -903.875 641.25 C-903.64210266 640.58502502 -903.40920532 639.92005005 -903.16925049 639.23492432 C-870.47986864 546.13682596 -822.93614323 457.87126769 -762.73974609 379.68945312 C-760.47924342 376.73227288 -758.26098565 373.74545295 -756.04663086 370.75366211 C-751.08022658 364.0487304 -745.91090252 357.5941035 -740.46484375 351.2734375 C-738.00961342 348.40715051 -735.62204147 345.49774716 -733.25 342.5625 C-729.62665505 338.11096192 -725.85536128 333.82617545 -721.9921875 329.58203125 C-720.09448831 327.49176111 -718.22766585 325.38013885 -716.375 323.25 C-702.90379679 307.81488562 -688.80926137 293.01366855 -674.3046875 278.54931641 C-671.97798555 276.22803685 -669.65676172 273.90137337 -667.3359375 271.57421875 C-665.83105012 270.06999133 -664.32585303 268.56607369 -662.8203125 267.0625 C-662.13993927 266.38010254 -661.45956604 265.69770508 -660.75857544 264.99462891 C-656.85824086 261.11306641 -652.85708876 257.40658947 -648.68327332 253.82015991 C-645.73070056 251.25638189 -642.90639131 248.55788533 -640.0625 245.875 C-635.02068357 241.15252568 -629.85135433 236.6834785 -624.45703125 232.36328125 C-621.83078232 230.21380974 -619.31866547 227.97539912 -616.8125 225.6875 C-612.00009075 221.3132693 -606.99300125 217.25922336 -601.875 213.25 C-600.88371094 212.46367187 -599.89242188 211.67734375 -598.87109375 210.8671875 C-583.58022047 198.75219975 -568.09878346 186.90278277 -552.06884766 175.78027344 C-549.71739399 174.14006516 -547.37946136 172.48175658 -545.04296875 170.8203125 C-534.66814977 163.4612882 -524.13800764 156.45454555 -513.31982422 149.76513672 C-510.79158283 148.19830368 -508.27224311 146.61785276 -505.75390625 145.03515625 C-433.75180391 99.91957458 -355.63645968 64.70681538 -245.875 32.25 C-245.16315552 32.0581311 -244.45131104 31.86626221 -243.71789551 31.6685791 C-181.78980988 15.03092063 -117.89679119 4.87844995 -53.875 1.25 C-53.15761658 1.20796448 -52.44023315 1.16592896 -51.70111084 1.12261963 C-34.47579916 0.13865725 -17.2484446 0.00480568 0 0 Z " fill="#000000" transform="translate(957.875,-0.25)"/>
<path d="M0 0 C1.0404245 -0.00067474 2.080849 -0.00134949 3.15280151 -0.00204468 C92.48161598 0.08821457 180.22940753 16.04916301 381.59326172 99.68310547 C384.16262187 101.16363639 386.73835369 102.63232874 389.31640625 104.09765625 C423.08763209 123.36205786 455.15882202 145.71819419 485.3125 170.25 C486.15554688 170.930625 486.99859375 171.61125 487.8671875 172.3125 C498.71100904 181.1132827 509.28283962 190.19703926 519.53125 199.68359375 C522.02072218 201.9807612 524.53429579 204.24568458 527.0625 206.5 C539.35469135 217.57475387 551.10117928 228.95711787 562.32910156 241.11376953 C564.3172017 243.25506399 566.32309466 245.37805859 568.3359375 247.49609375 C574.47188238 253.96049259 580.45634559 260.43975049 586.01171875 267.41796875 C588.83896364 270.898024 591.79305198 274.25523684 594.75 277.625 C600.04370151 283.69253668 605.05158137 289.88967209 609.87841797 296.33886719 C611.53612252 298.54801108 613.20755941 300.74647294 614.87890625 302.9453125 C625.27992113 316.66935226 635.22804362 330.61565389 644.3125 345.25 C641.91835336 347.64414664 639.95280544 348.29462214 636.78417969 349.48681641 C635.63073059 349.92311371 634.47728149 350.35941101 633.28887939 350.80892944 C632.02081445 351.28175064 630.75264327 351.75428696 629.484375 352.2265625 C628.16875685 352.72060445 626.85322677 353.214881 625.53778076 353.7093811 C613.17110458 358.34620893 600.74892411 362.82915452 588.31469727 367.28118896 C581.70214303 369.64940756 575.09280448 372.02654854 568.484375 374.40625 C567.81045715 374.64888454 567.13653931 374.89151909 566.44219971 375.1415062 C551.86971364 380.39048808 537.33899991 385.75007866 522.8125 391.125 C505.41871145 397.55859795 487.99679427 403.89488407 470.50985718 410.07064819 C453.50624896 416.07874231 436.5604421 422.24059786 419.625 428.4375 C418.95690811 428.68196365 418.28881622 428.92642731 417.60047913 429.17829895 C416.24870127 429.67294617 414.89692578 430.16759988 413.54515266 430.66226006 C410.15907086 431.90131391 406.77292081 433.1401811 403.38671875 434.37890625 C402.37875181 434.74766939 402.37875181 434.74766939 401.35042191 435.12388229 C386.89310577 440.41210884 372.41621228 445.64565077 357.9375 450.875 C337.81509371 458.14372854 317.72991747 465.50814129 297.66290283 472.92828369 C277.9109787 480.22788559 258.10830326 487.37769765 238.28364563 494.47649002 C217.2734691 502.00024858 196.30946761 509.63708847 175.37841797 517.37890625 C158.03136368 523.79398911 140.65217745 530.11093637 123.24133301 536.35064697 C106.68814005 542.28558507 90.18041674 548.33722513 73.6875 554.4375 C52.60110123 562.23626257 31.46764274 569.8916715 10.30133057 577.47008133 C-13.79619144 586.09857283 -37.83170314 594.88508925 -61.83636475 603.76861572 C-78.39233821 609.89343152 -78.39233821 609.89343152 -85.1484375 612.3359375 C-86.19563965 612.71540527 -87.2428418 613.09487305 -88.32177734 613.48583984 C-90.6875 614.25 -90.6875 614.25 -92.6875 614.25 C-92.3575 645.93 -92.0275 677.61 -91.6875 710.25 C-79.56 705.7640625 -79.56 705.7640625 -67.1875 701.1875 C-45.55891215 693.20437812 -23.89161102 685.33758543 -2.1875 677.5625 C17.61411932 670.46841893 37.39273501 663.31879302 57.12768555 656.04067993 C76.27051016 648.98171369 95.45082984 642.0288873 114.64306641 635.10546875 C126.57854296 630.7964485 138.49948524 626.45349054 150.390625 622.0234375 C152.6354019 621.18941338 154.88019328 620.35542822 157.125 619.52148438 C161.29051118 617.97344822 165.45116334 616.41322333 169.609375 614.84570312 C183.1915362 609.76635327 196.0062544 605.65125268 210.6875 605.8125 C211.67210205 605.81934814 212.6567041 605.82619629 213.67114258 605.83325195 C237.36494544 606.34862836 259.33054105 617.40586578 275.66796875 634.35546875 C278.90866687 638.08881456 281.60078174 642.12568978 284.3125 646.25 C284.92044914 647.11969689 285.52839829 647.98939378 286.15477014 648.88544512 C291.39803624 656.92360071 292.31173424 663.23625713 292.18792725 672.70983887 C292.19457481 674.13471621 292.20427882 675.55958196 292.2167418 676.9844203 C292.24191127 680.86811951 292.2238838 684.75055924 292.19825459 688.63421035 C292.17820363 692.83473409 292.19871942 697.03509406 292.21395874 701.23561096 C292.23732102 709.45182464 292.22327023 717.6675628 292.19602022 725.88374817 C292.16545986 735.46098491 292.17039689 745.03810686 292.17624763 754.61537856 C292.18530637 771.7090142 292.15952202 788.80242336 292.11523438 805.89599609 C292.07231273 822.46541127 292.05814376 839.03454016 292.07421875 855.60400391 C292.09170425 873.66691842 292.09341208 891.72970336 292.06763482 909.79261255 C292.06490182 911.72038936 292.06217548 913.64816617 292.05945587 915.57594299 C292.05809452 916.52433264 292.05673317 917.47272228 292.05533056 918.44985101 C292.04672533 925.11839471 292.0489441 931.78688441 292.05510712 938.45542908 C292.06217171 946.58730171 292.05086127 954.71891258 292.01659927 962.85071981 C291.99953847 966.996107 291.99024492 971.14110358 292.00273514 975.28651619 C292.01393733 979.08773488 292.00172875 982.88816114 291.97150543 986.6892696 C291.96132294 988.70191226 291.97537679 990.71463356 291.99054122 992.72724485 C291.79371743 1009.52804457 282.76371974 1023.06742932 271.57421875 1035.0703125 C264.82465696 1041.57507153 257.66869502 1046.92996043 249.15234375 1050.91015625 C248.435625 1051.24532257 247.71890625 1051.58048889 246.98046875 1051.92581177 C235.87333052 1056.96394616 224.29122361 1060.85553781 212.80270767 1064.91957474 C209.40535363 1066.12376031 206.01167309 1067.33820073 202.61791992 1068.55249023 C201.93453269 1068.79697875 201.25114546 1069.04146727 200.54704952 1069.29336452 C199.1643889 1069.78804013 197.78174012 1070.28274884 196.39910316 1070.77749062 C194.32487785 1071.51929553 192.25027466 1072.26003487 190.17558289 1073.00053406 C177.96369693 1077.36125918 165.78950472 1081.82136344 153.625 1086.3125 C134.81926786 1093.24766754 115.97932431 1100.08486901 97.12741089 1106.8934021 C79.12058899 1113.39894567 61.14487595 1119.98429746 43.1875 1126.625 C22.26190355 1134.36290713 1.28777985 1141.95535192 -19.71635437 1149.47649002 C-40.7265309 1157.00024858 -61.69053239 1164.63708847 -82.62158203 1172.37890625 C-99.96863632 1178.79398911 -117.34782255 1185.11093637 -134.75866699 1191.35064697 C-151.31185885 1197.28558467 -167.81962356 1203.33711735 -184.3125 1209.4375 C-207.33218953 1217.95191209 -230.40692857 1226.30366995 -253.51758385 1234.56748295 C-270.61745495 1240.68233099 -287.67297158 1246.90176994 -304.6875 1253.25 C-301.83004419 1256.18343732 -299.17943018 1258.33749965 -295.62890625 1260.39453125 C-294.61852295 1260.98121582 -293.60813965 1261.56790039 -292.56713867 1262.17236328 C-291.47248291 1262.7961084 -290.37782715 1263.41985352 -289.25 1264.0625 C-288.68149323 1264.38780701 -288.11298645 1264.71311401 -287.5272522 1265.04827881 C-236.6381519 1294.12700853 -182.80708151 1315.62774093 -125.69026184 1328.84260559 C-121.63013681 1329.78321934 -117.59424634 1330.78649155 -113.5625 1331.84375 C-107.2237869 1333.44265096 -100.81768056 1334.49617771 -94.36157227 1335.50268555 C-92.38665719 1335.81068201 -90.41304533 1336.12699695 -88.43945312 1336.44335938 C-59.93691588 1340.96464698 -31.78263017 1343.54673921 -2.9375 1343.5 C-1.94227325 1343.49913391 -0.94704651 1343.49826782 0.07833862 1343.49737549 C20.50958399 1343.45140144 40.81126098 1342.66534918 61.125 1340.4375 C61.93778412 1340.35007538 62.75056824 1340.26265076 63.58798218 1340.1725769 C77.57857843 1338.66166956 91.46897729 1336.79791619 105.3125 1334.25 C106.30894531 1334.06856445 107.30539062 1333.88712891 108.33203125 1333.70019531 C155.75402956 1324.94791418 201.41112022 1310.0709755 245.3125 1290.25 C246.2391748 1289.83363281 247.16584961 1289.41726563 248.12060547 1288.98828125 C261.20843188 1283.07162453 273.81244353 1276.31563164 286.3125 1269.25 C287.19776367 1268.75016602 288.08302734 1268.25033203 288.99511719 1267.73535156 C317.74120947 1251.38911948 344.91788316 1232.41670495 370.3125 1211.25 C370.89225586 1210.76934082 371.47201172 1210.28868164 372.06933594 1209.79345703 C379.52290107 1203.60635726 386.74048145 1197.20365167 393.83740234 1190.61181641 C395.29500047 1189.26615564 396.76658362 1187.93569478 398.23828125 1186.60546875 C408.12107221 1177.66514262 417.93101403 1168.47601869 426.55078125 1158.29296875 C428.40321375 1156.14480423 430.32086554 1154.06394303 432.25097656 1151.9855957 C437.86429049 1145.93630549 443.1546324 1139.69520316 448.3125 1133.25 C449.23490375 1132.11916043 450.15812196 1130.98898485 451.08203125 1129.859375 C473.71409095 1102.06640881 493.07623366 1071.75159759 510.19384766 1040.29931641 C511.22732699 1038.40603278 512.27395481 1036.52072425 513.32421875 1034.63671875 C538.93771016 988.24015201 556.43169129 935.73178434 566.79492188 883.82958984 C567.29924077 881.31608348 567.82763774 878.80860953 568.359375 876.30078125 C584.3264574 799.05688523 581.79604729 716.85568881 564.3125 640.25 C563.96082764 638.66904541 563.96082764 638.66904541 563.60205078 637.05615234 C554.31798461 595.36630544 539.47022903 555.11515408 520.9375 516.6875 C520.49513 515.77002487 520.49513 515.77002487 520.04382324 514.83401489 C516.9426512 508.42340093 513.79630213 502.11612471 510.07568359 496.03930664 C509.3125 494.25 509.3125 494.25 510.3125 491.25 C512.30493164 490.21311951 512.30493164 490.21311951 514.97265625 489.26733398 C515.97760132 488.90449814 516.98254639 488.54166229 518.01794434 488.16783142 C519.12577271 487.78115799 520.23360107 487.39448456 521.375 486.99609375 C522.52697876 486.58343765 523.67895752 486.17078156 524.86584473 485.74562073 C527.36518735 484.85183987 529.86560461 483.96236866 532.36889648 483.07983398 C536.34972586 481.6761893 540.32478698 480.25671734 544.29882812 478.83398438 C545.64635034 478.35174269 546.99388456 477.86953455 548.34143066 477.38735962 C549.34554741 477.02806807 549.34554741 477.02806807 550.36994934 476.6615181 C552.41657262 475.92990368 554.46375213 475.19986689 556.5111084 474.4703064 C567.6674558 470.49353441 578.79030783 466.42953989 589.9005127 462.32556152 C604.18277494 457.05031471 618.47966605 451.81633557 632.796875 446.63671875 C633.4539444 446.39898869 634.11101379 446.16125862 634.78799438 445.91632462 C640.6414137 443.79885146 646.49532031 441.68273115 652.35083008 439.57104492 C654.7803071 438.69489016 657.20961265 437.81825973 659.63873291 436.94111633 C661.84123507 436.14583564 664.0441214 435.35161761 666.24749756 434.5587616 C672.74644622 432.211173 679.18857746 429.75045387 685.605896 427.18733215 C688.3125 426.25 688.3125 426.25 691.3125 426.25 C706.60450527 457.80758514 720.08022682 490.01571446 731.3125 523.25 C731.69067871 524.36536133 732.06885742 525.48072266 732.45849609 526.62988281 C742.05766136 555.16175677 749.63436353 584.02247089 755.55566406 613.52148438 C756.23741226 616.88008389 756.95021718 620.2296313 757.6796875 623.578125 C761.63033073 641.97829859 764.02901861 660.58289471 766.3125 679.25 C766.46992676 680.5292334 766.62735352 681.8084668 766.78955078 683.12646484 C772.42502826 730.0210074 772.27041768 777.02673005 769.43884277 824.1026001 C769.32494125 826.0385408 769.22094471 827.97505813 769.11816406 829.91162109 C768.02957893 850.41945803 764.85966209 870.64638435 761.67773438 890.91418457 C761.34440348 893.0459649 761.01660192 895.17848959 760.69140625 897.31152344 C746.88721591 987.01496029 713.57280658 1077.01153616 659.3125 1168.25 C658.67135254 1169.30380859 658.03020508 1170.35761719 657.36962891 1171.44335938 C648.84524263 1185.41490901 639.85708021 1198.95723216 630.3125 1212.25 C629.18584933 1213.83308531 628.05954478 1215.416417 626.93359375 1217 C620.30588989 1226.28695574 613.46648959 1235.36296557 606.3125 1244.25 C605.80219238 1244.88647461 605.29188477 1245.52294922 604.76611328 1246.17871094 C594.47823189 1258.99711712 583.9241469 1271.53060099 572.75390625 1283.58984375 C570.76662347 1285.75518706 568.83999342 1287.94844755 566.9375 1290.1875 C563.18900244 1294.5259548 559.08804914 1298.50334404 555.01147461 1302.52954102 C552.21359457 1305.30469715 549.50461215 1308.07680444 547 1311.125 C544.50678257 1314.14619288 541.69707256 1316.57153345 538.71484375 1319.1015625 C535.62339791 1321.86627016 532.72593265 1324.79988894 529.8125 1327.75 C525.74943237 1331.85472825 521.66290644 1335.84437235 517.2578125 1339.5859375 C514.96017068 1341.55139014 512.73376877 1343.58729871 510.5 1345.625 C506.26161157 1349.44597138 501.91370897 1353.09247331 497.4765625 1356.6796875 C495.0996519 1358.60180461 492.74574057 1360.54965269 490.3984375 1362.5078125 C480.92028251 1370.4029771 471.26151356 1377.95881133 461.3125 1385.25 C460.63171387 1385.75321777 459.95092773 1386.25643555 459.24951172 1386.77490234 C422.7712095 1413.72383201 383.81816744 1436.92270733 343.3125 1457.25 C342.27867188 1457.77158691 341.24484375 1458.29317383 340.1796875 1458.83056641 C266.32887586 1495.88853732 185.96211718 1518.20041416 104.43057251 1529.9446106 C102.4528141 1530.22976914 100.47576691 1530.51984844 98.4987793 1530.81030273 C89.19059713 1532.12470023 79.87785255 1532.93751549 70.50708008 1533.62768555 C68.01280611 1533.81155597 65.51909342 1534.00191321 63.02539062 1534.19335938 C58.12246122 1534.56610235 53.21799213 1534.91285017 48.3125 1535.25 C47.57809692 1535.30192505 46.84369385 1535.3538501 46.08703613 1535.40734863 C33.8362123 1536.25720854 21.61577101 1536.40514025 9.33789062 1536.38037109 C6.21218944 1536.37504209 3.08663418 1536.38033577 -0.0390625 1536.38671875 C-21.48692765 1536.39587623 -42.82605281 1535.48253411 -64.1875 1533.5625 C-65.14217163 1533.47730103 -66.09684326 1533.39210205 -67.08044434 1533.30432129 C-87.42296106 1531.46216683 -107.56340212 1528.73311194 -127.6875 1525.25 C-128.517052 1525.1066925 -129.346604 1524.96338501 -130.20129395 1524.81573486 C-191.70644041 1514.11383344 -251.75120643 1495.888469 -308.6875 1470.25 C-309.8120459 1469.74678223 -310.9365918 1469.24356445 -312.09521484 1468.72509766 C-339.44868757 1456.4332737 -366.0218324 1442.76920111 -391.6875 1427.25 C-392.56486816 1426.72374023 -393.44223633 1426.19748047 -394.34619141 1425.65527344 C-409.17114418 1416.74422084 -423.47790126 1407.10715528 -437.6875 1397.25 C-438.77248779 1396.49759033 -438.77248779 1396.49759033 -439.87939453 1395.72998047 C-453.20603601 1386.44606088 -466.0907195 1376.49822821 -478.6875 1366.25 C-479.53054688 1365.569375 -480.37359375 1364.88875 -481.2421875 1364.1875 C-492.08600904 1355.3867173 -502.65783962 1346.30296074 -512.90625 1336.81640625 C-515.39572218 1334.5192388 -517.90929579 1332.25431542 -520.4375 1330 C-532.72969135 1318.92524613 -544.47617928 1307.54288213 -555.70410156 1295.38623047 C-557.6922017 1293.24493601 -559.69809466 1291.12194141 -561.7109375 1289.00390625 C-567.84688238 1282.53950741 -573.83134559 1276.06024951 -579.38671875 1269.08203125 C-582.21396364 1265.601976 -585.16805198 1262.24476316 -588.125 1258.875 C-593.41870151 1252.80746332 -598.42658137 1246.61032791 -603.25341797 1240.16113281 C-604.91112252 1237.95198892 -606.58255941 1235.75352706 -608.25390625 1233.5546875 C-618.65492113 1219.83064774 -628.60304362 1205.88434611 -637.6875 1191.25 C-633.86906553 1187.83487547 -629.35684144 1186.46103185 -624.6171875 1184.7578125 C-623.69418854 1184.42008316 -622.77118958 1184.08235382 -621.82022095 1183.73439026 C-618.73665188 1182.60806227 -615.64961807 1181.49156024 -612.5625 1180.375 C-610.36503285 1179.57452762 -608.16777153 1178.77349 -605.97070312 1177.97192383 C-598.87992989 1175.38790918 -591.78412852 1172.81788265 -584.6875 1170.25 C-583.51626587 1169.82599915 -582.34503174 1169.40199829 -581.13830566 1168.96514893 C-570.36803783 1165.06618601 -559.59704514 1161.16923199 -548.82421875 1157.27734375 C-532.04471423 1151.21167776 -515.29710616 1145.06332018 -498.5625 1138.875 C-478.20533992 1131.34817142 -457.80620252 1123.94774175 -437.375 1116.625 C-417.98213043 1109.67357706 -398.59801291 1102.7006682 -379.25 1095.625 C-377.67857742 1095.05039032 -377.67857742 1095.05039032 -376.07540894 1094.46417236 C-364.0569022 1090.06722254 -352.04690803 1085.64749412 -340.04296875 1081.2109375 C-335.34126405 1079.47363819 -330.63944293 1077.73665446 -325.9375 1076 C-324.1767363 1075.34955719 -324.1767363 1075.34955719 -322.38040161 1074.68597412 C-302.51159135 1067.35078477 -282.59307452 1060.16182191 -262.65361023 1053.02168274 C-243.12783628 1046.02945856 -223.63825109 1038.9490852 -204.1875 1031.75 C-183.89442733 1024.23932255 -163.55786012 1016.8601183 -143.1875 1009.5625 C-123.38322605 1002.46732851 -103.60179159 995.31705924 -83.86425781 988.03765869 C-67.32842959 981.93969572 -50.76393266 975.92415257 -34.1875 969.9375 C-14.53690509 962.83943421 5.08699638 955.67273001 24.6875 948.4375 C61.3105949 934.92547019 61.3105949 934.92547019 74.77325439 930.00405884 C76.69865606 929.2993982 78.62343332 928.59302884 80.54754639 927.88485718 C83.16287102 926.92259108 85.78031362 925.96633734 88.3984375 925.01171875 C89.16422119 924.72848755 89.93000488 924.44525635 90.71899414 924.15344238 C93.71816286 923.06621348 96.09572006 922.25 99.3125 922.25 C98.9825 890.57 98.6525 858.89 98.3125 826.25 C89.11375 829.611875 79.915 832.97375 70.4375 836.4375 C47.7544852 844.72384306 25.05699751 852.9681749 2.34436035 861.17300415 C-15.40117564 867.58595472 -33.11472241 874.08151856 -50.8125 880.625 C-74.22266916 889.27975387 -97.68917308 897.76962456 -121.18725586 906.18212891 C-122.18066844 906.53779592 -122.18066844 906.53779592 -123.19414997 906.90064812 C-123.85035926 907.13558542 -124.50656855 907.37052273 -125.18266296 907.61257935 C-126.15727258 907.96151937 -126.15727258 907.96151937 -127.15157127 908.3175087 C-128.44613704 908.78097615 -129.74072432 909.24438354 -131.03533363 909.70772934 C-139.1256393 912.6038663 -147.20613797 915.52477671 -155.2734375 918.484375 C-156.95009863 919.09769808 -158.62677436 919.71098127 -160.3034668 920.32421875 C-163.20647408 921.38636378 -166.10586621 922.45757807 -169.00317383 923.53515625 C-180.52873896 927.78198219 -191.58857577 930.8256577 -203.9375 930.6875 C-204.92693604 930.67847656 -205.91637207 930.66945313 -206.93579102 930.66015625 C-230.41939832 930.11362866 -251.14985607 919.76164135 -267.6875 903.25 C-282.6875 886.91935484 -282.6875 886.91935484 -282.6875 879.25 C-283.3475 879.25 -284.0075 879.25 -284.6875 879.25 C-284.87078099 835.31668803 -285.0116635 791.38341668 -285.09602264 747.44979748 C-285.10602778 742.25803494 -285.11638241 737.06627314 -285.12695312 731.87451172 C-285.12905161 730.84096536 -285.13115009 729.807419 -285.13331217 728.74255306 C-285.16808239 712.02757408 -285.23113661 695.31281618 -285.30472237 678.59796816 C-285.37964717 661.43527636 -285.423994 644.27269999 -285.44020796 627.10985136 C-285.45116174 616.5271436 -285.48570369 605.94506079 -285.55083174 595.36254549 C-285.5932588 588.09666305 -285.60586951 580.83110168 -285.59551102 573.56510448 C-285.59040823 569.37849337 -285.59799171 565.19297094 -285.6411438 561.00655556 C-285.95500749 528.99842037 -285.95500749 528.99842037 -276.6875 516.25 C-275.96044987 515.10554287 -275.96044987 515.10554287 -275.21871185 513.93796539 C-264.38373932 497.39587905 -248.16779212 486.86912592 -229.953125 480.1484375 C-228.90293686 479.75791199 -227.85274872 479.36738647 -226.77073669 478.96502686 C-215.65477867 474.84329824 -204.50434312 470.81648807 -193.35083008 466.79776001 C-187.01480549 464.51422006 -180.68072618 462.22531323 -174.34765625 459.93359375 C-173.69801533 459.69851294 -173.0483744 459.46343212 -172.37904739 459.22122765 C-158.12643194 454.06153729 -143.90524057 448.81745702 -129.6875 443.5625 C-111.02959261 436.66729352 -92.34292823 429.86081383 -73.61798096 423.14990234 C-57.06423447 417.21479062 -40.55596048 411.16297599 -24.0625 405.0625 C-3.64402008 397.51076588 16.8168251 390.08891795 37.3125 382.75 C58.75146211 375.07316008 80.14790634 367.29220271 101.50537109 359.390625 C120.54908856 352.34702194 139.63394693 345.42462007 158.74144745 338.55666351 C178.89012962 331.31389618 198.99836911 323.9683069 219.07745361 316.53427124 C233.36110111 311.24801106 247.66563577 306.02654068 262.00390625 300.890625 C262.74484591 300.62510771 263.48578556 300.35959042 264.24917793 300.08602715 C271.53496576 297.47546834 278.82224551 294.86919227 286.11401653 292.27538872 C288.78890743 291.32312368 291.46267853 290.36774252 294.13622856 289.41172028 C295.9797291 288.75387833 297.82481581 288.10048673 299.66993713 287.44720459 C300.76934128 287.05381897 301.86874542 286.66043335 303.00146484 286.25512695 C303.95983246 285.91431595 304.91820007 285.57350494 305.90560913 285.22236633 C308.50969014 284.26489518 308.50969014 284.26489518 311.3125 282.25 C300.20624184 275.1383633 288.9212606 268.50634193 277.3125 262.25 C276.46365234 261.78867676 275.61480469 261.32735352 274.74023438 260.85205078 C222.87345772 232.75913232 165.42479705 212.51165599 107.3125 202.25 C106.11012695 202.03746582 104.90775391 201.82493164 103.66894531 201.60595703 C89.66210057 199.16756925 75.63732284 197.03334906 61.5 195.5 C60.43547607 195.38446777 59.37095215 195.26893555 58.27416992 195.14990234 C41.38630034 193.43496189 24.52701281 193.04706243 7.5625 193.0625 C6.53602356 193.06243958 5.50954712 193.06237915 4.45196533 193.06231689 C-11.65224034 193.0757566 -27.60305119 193.55400219 -43.65087891 194.98095703 C-46.43663998 195.22777394 -49.22279735 195.44495565 -52.01171875 195.65234375 C-77.80569751 197.69022579 -103.54836608 202.23115005 -128.6875 208.25 C-129.96044922 208.55357422 -131.23339844 208.85714844 -132.54492188 209.16992188 C-165.82854364 217.19610819 -198.5052499 228.09088722 -229.6875 242.25 C-230.82429199 242.75885742 -231.96108398 243.26771484 -233.13232422 243.79199219 C-249.0507792 250.93002093 -264.54369987 258.58917387 -279.6875 267.25 C-280.99581787 267.9910498 -280.99581787 267.9910498 -282.33056641 268.74707031 C-311.09249146 285.09639902 -338.28094086 304.073341 -363.6875 325.25 C-364.26725586 325.73065918 -364.84701172 326.21131836 -365.44433594 326.70654297 C-372.89951956 332.89498623 -380.11842124 339.29922526 -387.21679688 345.89257812 C-388.66087624 347.22542694 -390.11939557 348.542576 -391.578125 349.859375 C-401.85175112 359.14409593 -412.08338386 368.71766427 -421.02734375 379.30859375 C-423.14452462 381.78444997 -425.35531829 384.16661268 -427.5625 386.5625 C-432.48327302 391.9649752 -437.1145049 397.55237581 -441.6875 403.25 C-442.61139449 404.38198786 -443.5359029 405.51347487 -444.4609375 406.64453125 C-467.58505388 435.04789801 -487.27236646 466.0714072 -504.6875 498.25 C-505.28780029 499.34924805 -505.88810059 500.44849609 -506.5065918 501.58105469 C-511.36098464 510.52475436 -515.80750953 519.60382512 -520 528.875 C-520.32109741 529.58343048 -520.64219482 530.29186096 -520.97302246 531.02175903 C-527.52789318 545.53158759 -533.41590668 560.22018437 -538.6875 575.25 C-539.02494232 576.21141907 -539.02494232 576.21141907 -539.36920166 577.19226074 C-550.748907 609.73811763 -559.45453414 643.15810377 -564.6875 677.25 C-564.87006348 678.40886719 -565.05262695 679.56773437 -565.24072266 680.76171875 C-567.75997181 696.8743707 -569.66868339 712.97200633 -570.6875 729.25 C-570.72986786 729.89796539 -570.77223572 730.54593079 -570.81588745 731.21353149 C-571.69644286 744.91382806 -571.889251 758.5864152 -571.875 772.3125 C-571.87409363 773.9341507 -571.87409363 773.9341507 -571.87316895 775.58856201 C-571.84895619 791.57045699 -571.54090094 807.36010881 -569.6875 823.25 C-569.55859375 824.40854492 -569.4296875 825.56708984 -569.296875 826.76074219 C-564.330523 870.68766577 -555.11410121 913.42374207 -540.6875 955.25 C-540.14875244 956.8287793 -540.14875244 956.8287793 -539.59912109 958.43945312 C-531.34003043 982.51579644 -521.22175309 1005.58314678 -509.99389648 1028.3984375 C-509.65716919 1029.08310593 -509.32044189 1029.76777435 -508.97351074 1030.47319031 C-508.34191435 1031.75512707 -507.70841916 1033.03613085 -507.07263184 1034.31599426 C-505.46171923 1037.57864997 -503.98664177 1040.85079897 -502.6875 1044.25 C-516.21920912 1049.6239682 -529.87368504 1054.62357423 -543.57318115 1059.5519104 C-549.98192988 1061.85807481 -556.38774831 1064.1723378 -562.79296875 1066.48828125 C-563.77978512 1066.8450208 -563.77978512 1066.8450208 -564.78653717 1067.20896721 C-579.23400681 1072.43349342 -593.65065875 1077.74049668 -608.0625 1083.0625 C-641.87784214 1095.54226504 -641.87784214 1095.54226504 -658.03839111 1101.44100952 C-659.94996009 1102.13927007 -661.86106382 1102.83880581 -663.77166748 1103.53970337 C-666.37255186 1104.49352744 -668.97507524 1105.44272927 -671.578125 1106.390625 C-672.71131668 1106.80772987 -672.71131668 1106.80772987 -673.86740112 1107.23326111 C-677.44839072 1108.53129953 -680.92231814 1109.64306966 -684.6875 1110.25 C-721.1439458 1032.97085443 -747.34757313 952.6125171 -762.37890625 828.78076172 C-762.66312625 825.52887123 -762.98362761 822.28277106 -763.3125 819.03515625 C-771.92867382 727.39630254 -758.40977375 631.71556337 -661.6875 383.25 C-661.10387695 382.24904297 -660.52025391 381.24808594 -659.91894531 380.21679688 C-633.70033463 335.38734003 -602.80505059 292.51897851 -567.4831543 254.37182617 C-564.97706805 251.66521657 -562.52360348 248.92710687 -560.125 246.125 C-556.64713553 242.10502236 -552.86837307 238.41491533 -549.0859375 234.68359375 C-547.05442778 232.6223062 -545.17018941 230.52813444 -543.3125 228.3125 C-539.96050909 224.39397541 -536.20575128 220.97849938 -532.38037109 217.53637695 C-528.78770804 214.293358 -525.33323887 210.94810001 -521.9375 207.5 C-518.30857152 203.83473031 -514.62495952 200.33228252 -510.703125 196.984375 C-508.38635379 194.99087419 -506.13330016 192.93445612 -503.875 190.875 C-499.63661157 187.05402862 -495.28870897 183.40752669 -490.8515625 179.8203125 C-488.4746519 177.89819539 -486.12074057 175.95034731 -483.7734375 173.9921875 C-474.29528251 166.0970229 -464.63651356 158.54118867 -454.6875 151.25 C-454.00671387 150.74678223 -453.32592773 150.24356445 -452.62451172 149.72509766 C-416.15110553 122.779785 -377.19999003 99.55463003 -336.6875 79.25 C-335.09687744 78.45166748 -335.09687744 78.45166748 -333.47412109 77.63720703 C-257.89250387 39.94800268 -174.82262265 15.77647315 -43.6875 1.25 C-42.58192245 1.18694672 -42.58192245 1.18694672 -41.45401001 1.12261963 C-27.63499853 0.35074348 -13.84003633 0.00824552 0 0 Z " fill="#5D008C" transform="translate(956.6875,191.75)"/>
</svg>
